{
	"asset":{
		"generator":"Khronos glTF Blender I/O v4.3.47",
		"version":"2.0"
	},
	"scene":0,
	"scenes":[
		{
			"name":"Scene",
			"nodes":[
				0,
				1,
				2
			]
		}
	],
	"nodes":[
		{
			"mesh":0,
			"name":"body",
			"rotation":[
				0,
				0.009564705193042755,
				0,
				0.999954342842102
			],
			"translation":[
				-0.005521046929061413,
				0,
				-0.000687330961227417
			]
		},
		{
			"mesh":1,
			"name":"eye",
			"rotation":[
				0.7070745229721069,
				0.006763267330825329,
				-0.006763267330825329,
				0.7070744633674622
			],
			"scale":[
				0.33617305755615234,
				0.33617305755615234,
				0.33617305755615234
			],
			"translation":[
				-0.0037205154076218605,
				-0.14610067009925842,
				0.09342354536056519
			]
		},
		{
			"mesh":2,
			"name":"ring",
			"rotation":[
				0,
				-0.14893196523189545,
				0,
				0.9888474345207214
			],
			"scale":[
				0.4213029146194458,
				0.4213028848171234,
				0.4213029146194458
			],
			"translation":[
				0.009241560474038124,
				1.2563667297363281,
				0.0013918876647949219
			]
		}
	],
	"materials":[
		{
			"doubleSided":true,
			"name":"Material.001",
			"pbrMetallicRoughness":{
				"baseColorTexture":{
					"index":0
				},
				"metallicFactor":0,
				"roughnessFactor":0.5
			}
		},
		{
			"doubleSided":true,
			"name":"Material",
			"pbrMetallicRoughness":{
				"baseColorTexture":{
					"index":1
				},
				"metallicFactor":0,
				"roughnessFactor":0.5
			}
		},
		{
			"doubleSided":true,
			"name":"Material.002",
			"pbrMetallicRoughness":{
				"baseColorTexture":{
					"index":2
				},
				"metallicFactor":0,
				"roughnessFactor":0.5
			}
		}
	],
	"meshes":[
		{
			"extras":{
				"targetNames":[
					"A",
					"E",
					"I",
					"O"
				]
			},
			"name":"BSurfaceMesh",
			"primitives":[
				{
					"attributes":{
						"POSITION":0,
						"NORMAL":1,
						"TEXCOORD_0":2
					},
					"indices":3,
					"material":0,
					"targets":[
						{
							"POSITION":4,
							"NORMAL":5
						},
						{
							"POSITION":6,
							"NORMAL":7
						},
						{
							"POSITION":8,
							"NORMAL":9
						},
						{
							"POSITION":10,
							"NORMAL":11
						}
					]
				}
			],
			"weights":[
				0,
				0.3310810923576355,
				0.39189207553863525,
				0
			]
		},
		{
			"extras":{
				"targetNames":[
					"Key 1",
					"shock"
				]
			},
			"name":"Plane",
			"primitives":[
				{
					"attributes":{
						"POSITION":12,
						"NORMAL":13,
						"TEXCOORD_0":14
					},
					"indices":15,
					"material":1,
					"targets":[
						{
							"POSITION":16,
							"NORMAL":17
						},
						{
							"POSITION":18,
							"NORMAL":19
						}
					]
				}
			],
			"weights":[
				0,
				0
			]
		},
		{
			"name":"Torus.001",
			"primitives":[
				{
					"attributes":{
						"POSITION":20,
						"NORMAL":21,
						"TEXCOORD_0":22
					},
					"indices":23,
					"material":2
				}
			]
		}
	],
	"textures":[
		{
			"sampler":0,
			"source":0
		},
		{
			"sampler":0,
			"source":1
		},
		{
			"sampler":0,
			"source":2
		}
	],
	"images":[
		{
			"mimeType":"image/png",
			"name":"face",
			"uri":"face.png"
		},
		{
			"mimeType":"image/png",
			"name":"eyes",
			"uri":"eyes.png"
		},
		{
			"mimeType":"image/png",
			"name":"ring",
			"uri":"ring.png"
		}
	],
	"accessors":[
		{
			"bufferView":0,
			"componentType":5126,
			"count":615,
			"max":[
				1.04994535446167,
				1.05301833152771,
				0.9213852286338806
			],
			"min":[
				-1.04994535446167,
				-0.9131556153297424,
				-0.832099974155426
			],
			"type":"VEC3"
		},
		{
			"bufferView":1,
			"componentType":5126,
			"count":615,
			"type":"VEC3"
		},
		{
			"bufferView":2,
			"componentType":5126,
			"count":615,
			"type":"VEC2"
		},
		{
			"bufferView":3,
			"componentType":5123,
			"count":2616,
			"type":"SCALAR"
		},
		{
			"componentType":5126,
			"count":615,
			"max":[
				0,
				0,
				0
			],
			"min":[
				0,
				0,
				0
			],
			"sparse":{
				"count":1,
				"indices":{
					"bufferView":4,
					"componentType":5121
				},
				"values":{
					"bufferView":5
				}
			},
			"type":"VEC3"
		},
		{
			"bufferView":6,
			"componentType":5126,
			"count":615,
			"type":"VEC3"
		},
		{
			"componentType":5126,
			"count":615,
			"max":[
				0,
				0.10018542408943176,
				0
			],
			"min":[
				0,
				-0.10135582834482193,
				0
			],
			"sparse":{
				"count":51,
				"indices":{
					"bufferView":7,
					"componentType":5123
				},
				"values":{
					"bufferView":8
				}
			},
			"type":"VEC3"
		},
		{
			"bufferView":9,
			"componentType":5126,
			"count":615,
			"type":"VEC3"
		},
		{
			"componentType":5126,
			"count":615,
			"max":[
				0,
				0.15151463449001312,
				0
			],
			"min":[
				0,
				-0.19569633901119232,
				0
			],
			"sparse":{
				"count":57,
				"indices":{
					"bufferView":10,
					"componentType":5123
				},
				"values":{
					"bufferView":11
				}
			},
			"type":"VEC3"
		},
		{
			"bufferView":12,
			"componentType":5126,
			"count":615,
			"type":"VEC3"
		},
		{
			"componentType":5126,
			"count":615,
			"max":[
				0.08929751813411713,
				0.07227805256843567,
				0.003338456153869629
			],
			"min":[
				-0.08929751813411713,
				-0.06875631958246231,
				-0.008787453174591064
			],
			"sparse":{
				"count":39,
				"indices":{
					"bufferView":13,
					"componentType":5123
				},
				"values":{
					"bufferView":14
				}
			},
			"type":"VEC3"
		},
		{
			"bufferView":15,
			"componentType":5126,
			"count":615,
			"type":"VEC3"
		},
		{
			"bufferView":16,
			"componentType":5126,
			"count":56,
			"max":[
				1.863337755203247,
				2.029369831085205,
				0
			],
			"min":[
				-1.639869213104248,
				0,
				-2.6972463130950928
			],
			"type":"VEC3"
		},
		{
			"bufferView":17,
			"componentType":5126,
			"count":56,
			"type":"VEC3"
		},
		{
			"bufferView":18,
			"componentType":5126,
			"count":56,
			"type":"VEC2"
		},
		{
			"bufferView":19,
			"componentType":5123,
			"count":132,
			"type":"SCALAR"
		},
		{
			"componentType":5126,
			"count":56,
			"max":[
				0,
				0,
				0
			],
			"min":[
				0,
				0,
				0
			],
			"sparse":{
				"count":1,
				"indices":{
					"bufferView":20,
					"componentType":5121
				},
				"values":{
					"bufferView":21
				}
			},
			"type":"VEC3"
		},
		{
			"bufferView":22,
			"componentType":5126,
			"count":56,
			"type":"VEC3"
		},
		{
			"bufferView":23,
			"componentType":5126,
			"count":56,
			"max":[
				0,
				0.23673588037490845,
				0
			],
			"min":[
				0,
				-0.34066832065582275,
				0
			],
			"type":"VEC3"
		},
		{
			"bufferView":24,
			"componentType":5126,
			"count":56,
			"type":"VEC3"
		},
		{
			"bufferView":25,
			"componentType":5126,
			"count":273,
			"max":[
				1.25,
				0.25,
				1.25
			],
			"min":[
				-1.25,
				-0.25,
				-1.25
			],
			"type":"VEC3"
		},
		{
			"bufferView":26,
			"componentType":5126,
			"count":273,
			"type":"VEC3"
		},
		{
			"bufferView":27,
			"componentType":5126,
			"count":273,
			"type":"VEC2"
		},
		{
			"bufferView":28,
			"componentType":5123,
			"count":1440,
			"type":"SCALAR"
		}
	],
	"bufferViews":[
		{
			"buffer":0,
			"byteLength":7380,
			"byteOffset":0,
			"target":34962
		},
		{
			"buffer":0,
			"byteLength":7380,
			"byteOffset":7380,
			"target":34962
		},
		{
			"buffer":0,
			"byteLength":4920,
			"byteOffset":14760,
			"target":34962
		},
		{
			"buffer":0,
			"byteLength":5232,
			"byteOffset":19680,
			"target":34963
		},
		{
			"buffer":0,
			"byteLength":1,
			"byteOffset":24912
		},
		{
			"buffer":0,
			"byteLength":12,
			"byteOffset":24916
		},
		{
			"buffer":0,
			"byteLength":7380,
			"byteOffset":24928,
			"target":34962
		},
		{
			"buffer":0,
			"byteLength":102,
			"byteOffset":32308
		},
		{
			"buffer":0,
			"byteLength":612,
			"byteOffset":32412
		},
		{
			"buffer":0,
			"byteLength":7380,
			"byteOffset":33024,
			"target":34962
		},
		{
			"buffer":0,
			"byteLength":114,
			"byteOffset":40404
		},
		{
			"buffer":0,
			"byteLength":684,
			"byteOffset":40520
		},
		{
			"buffer":0,
			"byteLength":7380,
			"byteOffset":41204,
			"target":34962
		},
		{
			"buffer":0,
			"byteLength":78,
			"byteOffset":48584
		},
		{
			"buffer":0,
			"byteLength":468,
			"byteOffset":48664
		},
		{
			"buffer":0,
			"byteLength":7380,
			"byteOffset":49132,
			"target":34962
		},
		{
			"buffer":0,
			"byteLength":672,
			"byteOffset":56512,
			"target":34962
		},
		{
			"buffer":0,
			"byteLength":672,
			"byteOffset":57184,
			"target":34962
		},
		{
			"buffer":0,
			"byteLength":448,
			"byteOffset":57856,
			"target":34962
		},
		{
			"buffer":0,
			"byteLength":264,
			"byteOffset":58304,
			"target":34963
		},
		{
			"buffer":0,
			"byteLength":1,
			"byteOffset":58568
		},
		{
			"buffer":0,
			"byteLength":12,
			"byteOffset":58572
		},
		{
			"buffer":0,
			"byteLength":672,
			"byteOffset":58584,
			"target":34962
		},
		{
			"buffer":0,
			"byteLength":672,
			"byteOffset":59256,
			"target":34962
		},
		{
			"buffer":0,
			"byteLength":672,
			"byteOffset":59928,
			"target":34962
		},
		{
			"buffer":0,
			"byteLength":3276,
			"byteOffset":60600,
			"target":34962
		},
		{
			"buffer":0,
			"byteLength":3276,
			"byteOffset":63876,
			"target":34962
		},
		{
			"buffer":0,
			"byteLength":2184,
			"byteOffset":67152,
			"target":34962
		},
		{
			"buffer":0,
			"byteLength":2880,
			"byteOffset":69336,
			"target":34963
		}
	],
	"samplers":[
		{
			"magFilter":9729,
			"minFilter":9987
		}
	],
	"buffers":[
		{
			"byteLength":72216,
			"uri":"takodachi.bin"
		}
	]
}
