{
	"asset":{
		"generator":"Khronos glTF Blender I/O v4.3.47",
		"version":"2.0"
	},
	"scene":0,
	"scenes":[
		{
			"name":"Scene",
			"nodes":[
				0,
				1,
				2,
				3,
				4,
				5,
				6,
				7
			]
		}
	],
	"nodes":[
		{
			"mesh":0,
			"name":"head",
			"rotation":[
				0,
				-0.0021702998783439398,
				0,
				0.9999977350234985
			],
			"scale":[
				0.8507561087608337,
				0.850756049156189,
				0.8507561087608337
			],
			"translation":[
				0.0012964094057679176,
				1.945326805114746,
				-0.0006572380661964417
			]
		},
		{
			"mesh":1,
			"name":"body",
			"rotation":[
				0,
				-0.0021702998783439398,
				0,
				0.9999977350234985
			],
			"scale":[
				0.8507561087608337,
				0.850756049156189,
				0.8507561087608337
			],
			"translation":[
				0.0012964094057679176,
				1.9637982845306396,
				-0.0006572399288415909
			]
		},
		{
			"mesh":2,
			"name":"hand",
			"rotation":[
				0,
				-0.0021702998783439398,
				0,
				0.9999977350234985
			],
			"scale":[
				0.8507561087608337,
				0.850756049156189,
				0.8507561087608337
			],
			"translation":[
				0.0012964094057679176,
				1.9637982845306396,
				-0.0006572399288415909
			]
		},
		{
			"mesh":3,
			"name":"leg",
			"rotation":[
				0,
				-0.0021702998783439398,
				0,
				0.9999977350234985
			],
			"scale":[
				0.8507561087608337,
				0.850756049156189,
				0.8507561087608337
			],
			"translation":[
				0.0012964094057679176,
				1.9637982845306396,
				-0.0006572399288415909
			]
		},
		{
			"mesh":4,
			"name":"tail",
			"rotation":[
				0,
				-0.0021702998783439398,
				0,
				0.9999977350234985
			],
			"scale":[
				0.8507561087608337,
				0.850756049156189,
				0.8507561087608337
			],
			"translation":[
				0.0012964028865098953,
				1.8725159168243408,
				-0.0006572343409061432
			]
		},
		{
			"mesh":5,
			"name":"eye",
			"rotation":[
				-0.7071051001548767,
				-0.0015345520805567503,
				-0.0015346307773143053,
				0.7071051001548767
			],
			"translation":[
				0.0010469704866409302,
				0,
				0.05676008760929108
			]
		},
		{
			"mesh":6,
			"name":"mouse_hige",
			"rotation":[
				-0.7071051001548767,
				-0.0015345520805567503,
				-0.0015346307773143053,
				0.7071051001548767
			],
			"translation":[
				0.0011793756857514381,
				0,
				0.026255406439304352
			]
		},
		{
			"mesh":7,
			"name":"helmet",
			"scale":[
				0.850756049156189,
				0.850756049156189,
				0.850756049156189
			],
			"translation":[
				0,
				1.9046895503997803,
				0
			]
		}
	],
	"materials":[
		{
			"doubleSided":true,
			"name":"Material",
			"pbrMetallicRoughness":{
				"baseColorTexture":{
					"index":0
				},
				"metallicFactor":0,
				"roughnessFactor":0.5
			}
		},
		{
			"doubleSided":true,
			"name":"Material.004",
			"pbrMetallicRoughness":{
				"baseColorTexture":{
					"index":1
				},
				"metallicFactor":0,
				"roughnessFactor":0.5
			}
		},
		{
			"doubleSided":true,
			"name":"Material.005",
			"pbrMetallicRoughness":{
				"baseColorTexture":{
					"index":2
				},
				"metallicFactor":0,
				"roughnessFactor":0.5
			}
		},
		{
			"doubleSided":true,
			"name":"Material.006",
			"pbrMetallicRoughness":{
				"baseColorTexture":{
					"index":3
				},
				"metallicFactor":0,
				"roughnessFactor":0.5
			}
		},
		{
			"doubleSided":true,
			"name":"Material.007",
			"pbrMetallicRoughness":{
				"baseColorTexture":{
					"index":4
				},
				"metallicFactor":0,
				"roughnessFactor":0.5
			}
		},
		{
			"doubleSided":true,
			"name":"Material.001",
			"pbrMetallicRoughness":{
				"baseColorTexture":{
					"index":5
				},
				"metallicFactor":0,
				"roughnessFactor":0.5
			}
		},
		{
			"doubleSided":true,
			"name":"Material.002",
			"pbrMetallicRoughness":{
				"baseColorTexture":{
					"index":6
				},
				"metallicFactor":0,
				"roughnessFactor":0.5
			}
		},
		{
			"doubleSided":true,
			"name":"Material.003",
			"pbrMetallicRoughness":{
				"baseColorTexture":{
					"index":7
				},
				"metallicFactor":0,
				"roughnessFactor":0.5
			}
		}
	],
	"meshes":[
		{
			"name":"Sphere.001",
			"primitives":[
				{
					"attributes":{
						"POSITION":0,
						"NORMAL":1,
						"TEXCOORD_0":2
					},
					"indices":3,
					"material":0
				}
			]
		},
		{
			"name":"Sphere.002",
			"primitives":[
				{
					"attributes":{
						"POSITION":4,
						"NORMAL":5,
						"TEXCOORD_0":6
					},
					"indices":7,
					"material":1
				}
			]
		},
		{
			"name":"Sphere.003",
			"primitives":[
				{
					"attributes":{
						"POSITION":8,
						"NORMAL":9,
						"TEXCOORD_0":10
					},
					"indices":11,
					"material":2
				}
			]
		},
		{
			"name":"Sphere.004",
			"primitives":[
				{
					"attributes":{
						"POSITION":12,
						"NORMAL":13,
						"TEXCOORD_0":14
					},
					"indices":15,
					"material":3
				}
			]
		},
		{
			"name":"Sphere.005",
			"primitives":[
				{
					"attributes":{
						"POSITION":16,
						"NORMAL":17,
						"TEXCOORD_0":18
					},
					"indices":19,
					"material":4
				}
			]
		},
		{
			"extras":{
				"targetNames":[
					"sad",
					"><"
				]
			},
			"name":"Plane",
			"primitives":[
				{
					"attributes":{
						"POSITION":20,
						"NORMAL":21,
						"TEXCOORD_0":22
					},
					"indices":23,
					"material":5,
					"targets":[
						{
							"POSITION":24,
							"NORMAL":25
						},
						{
							"POSITION":26,
							"NORMAL":27
						}
					]
				}
			],
			"weights":[
				0,
				0
			]
		},
		{
			"extras":{
				"targetNames":[
					"shock"
				]
			},
			"name":"Plane.001",
			"primitives":[
				{
					"attributes":{
						"POSITION":28,
						"NORMAL":29,
						"TEXCOORD_0":30
					},
					"indices":31,
					"material":6,
					"targets":[
						{
							"POSITION":32,
							"NORMAL":33
						}
					]
				}
			],
			"weights":[
				0
			]
		},
		{
			"name":"Sphere.006",
			"primitives":[
				{
					"attributes":{
						"POSITION":34,
						"NORMAL":35,
						"TEXCOORD_0":36
					},
					"indices":37,
					"material":7
				}
			]
		}
	],
	"textures":[
		{
			"sampler":0,
			"source":0
		},
		{
			"sampler":0,
			"source":1
		},
		{
			"sampler":0,
			"source":2
		},
		{
			"sampler":0,
			"source":3
		},
		{
			"sampler":0,
			"source":4
		},
		{
			"sampler":0,
			"source":5
		},
		{
			"sampler":0,
			"source":6
		},
		{
			"sampler":0,
			"source":7
		}
	],
	"images":[
		{
			"mimeType":"image/png",
			"name":"head",
			"uri":"head.png"
		},
		{
			"mimeType":"image/png",
			"name":"body",
			"uri":"body.png"
		},
		{
			"mimeType":"image/png",
			"name":"hand",
			"uri":"hand.png"
		},
		{
			"mimeType":"image/png",
			"name":"leg",
			"uri":"leg.png"
		},
		{
			"mimeType":"image/png",
			"name":"tail",
			"uri":"tail.png"
		},
		{
			"mimeType":"image/png",
			"name":"eye",
			"uri":"eye.png"
		},
		{
			"mimeType":"image/png",
			"name":"mouse_hige",
			"uri":"mouse_hige.png"
		},
		{
			"mimeType":"image/png",
			"name":"helmet",
			"uri":"helmet.png"
		}
	],
	"accessors":[
		{
			"bufferView":0,
			"componentType":5126,
			"count":1180,
			"max":[
				0.9683842062950134,
				1.1108477115631104,
				0.9683842658996582
			],
			"min":[
				-0.9683842062950134,
				-0.7292763590812683,
				-0.9683842658996582
			],
			"type":"VEC3"
		},
		{
			"bufferView":1,
			"componentType":5126,
			"count":1180,
			"type":"VEC3"
		},
		{
			"bufferView":2,
			"componentType":5126,
			"count":1180,
			"type":"VEC2"
		},
		{
			"bufferView":3,
			"componentType":5123,
			"count":5976,
			"type":"SCALAR"
		},
		{
			"bufferView":4,
			"componentType":5126,
			"count":517,
			"max":[
				0.7953455448150635,
				-0.7346319556236267,
				0.5414736866950989
			],
			"min":[
				-0.7985888719558716,
				-2.965390682220459,
				-0.7923235893249512
			],
			"type":"VEC3"
		},
		{
			"bufferView":5,
			"componentType":5126,
			"count":517,
			"type":"VEC3"
		},
		{
			"bufferView":6,
			"componentType":5126,
			"count":517,
			"type":"VEC2"
		},
		{
			"bufferView":7,
			"componentType":5123,
			"count":2652,
			"type":"SCALAR"
		},
		{
			"bufferView":8,
			"componentType":5126,
			"count":448,
			"max":[
				2.0602290630340576,
				-0.6661703586578369,
				0.3783900737762451
			],
			"min":[
				-2.0602290630340576,
				-1.1707555055618286,
				-0.26695623993873596
			],
			"type":"VEC3"
		},
		{
			"bufferView":9,
			"componentType":5126,
			"count":448,
			"type":"VEC3"
		},
		{
			"bufferView":10,
			"componentType":5126,
			"count":448,
			"type":"VEC2"
		},
		{
			"bufferView":11,
			"componentType":5123,
			"count":1800,
			"type":"SCALAR"
		},
		{
			"bufferView":12,
			"componentType":5126,
			"count":381,
			"max":[
				0.9722892642021179,
				-2.1963934898376465,
				0.33591386675834656
			],
			"min":[
				-0.9722893238067627,
				-4.1134209632873535,
				-0.5182676911354065
			],
			"type":"VEC3"
		},
		{
			"bufferView":13,
			"componentType":5126,
			"count":381,
			"type":"VEC3"
		},
		{
			"bufferView":14,
			"componentType":5126,
			"count":381,
			"type":"VEC2"
		},
		{
			"bufferView":15,
			"componentType":5123,
			"count":1512,
			"type":"SCALAR"
		},
		{
			"bufferView":16,
			"componentType":5126,
			"count":263,
			"max":[
				0.19222578406333923,
				-1.986757516860962,
				2.046597719192505
			],
			"min":[
				-0.19268648326396942,
				-2.5260701179504395,
				0.3705157935619354
			],
			"type":"VEC3"
		},
		{
			"bufferView":17,
			"componentType":5126,
			"count":263,
			"type":"VEC3"
		},
		{
			"bufferView":18,
			"componentType":5126,
			"count":263,
			"type":"VEC2"
		},
		{
			"bufferView":19,
			"componentType":5123,
			"count":1020,
			"type":"SCALAR"
		},
		{
			"bufferView":20,
			"componentType":5126,
			"count":149,
			"max":[
				0.4263461232185364,
				0.8746932744979858,
				2.2567617893218994
			],
			"min":[
				-0.4263461232185364,
				0.6759048700332642,
				1.8446295261383057
			],
			"type":"VEC3"
		},
		{
			"bufferView":21,
			"componentType":5126,
			"count":149,
			"type":"VEC3"
		},
		{
			"bufferView":22,
			"componentType":5126,
			"count":149,
			"type":"VEC2"
		},
		{
			"bufferView":23,
			"componentType":5123,
			"count":411,
			"type":"SCALAR"
		},
		{
			"bufferView":24,
			"componentType":5126,
			"count":149,
			"max":[
				0,
				0.061360836029052734,
				0
			],
			"min":[
				0,
				-0.0673334002494812,
				0
			],
			"type":"VEC3"
		},
		{
			"bufferView":25,
			"componentType":5126,
			"count":149,
			"type":"VEC3"
		},
		{
			"componentType":5126,
			"count":149,
			"max":[
				0,
				0.09736275672912598,
				0
			],
			"min":[
				0,
				-0.08547210693359375,
				0
			],
			"sparse":{
				"count":44,
				"indices":{
					"bufferView":26,
					"componentType":5121
				},
				"values":{
					"bufferView":27
				}
			},
			"type":"VEC3"
		},
		{
			"bufferView":28,
			"componentType":5126,
			"count":149,
			"type":"VEC3"
		},
		{
			"bufferView":29,
			"componentType":5126,
			"count":295,
			"max":[
				0.5952996015548706,
				0.8818169832229614,
				1.8952007293701172
			],
			"min":[
				-0.5952996015548706,
				0.6864636540412903,
				1.490676999092102
			],
			"type":"VEC3"
		},
		{
			"bufferView":30,
			"componentType":5126,
			"count":295,
			"type":"VEC3"
		},
		{
			"bufferView":31,
			"componentType":5126,
			"count":295,
			"type":"VEC2"
		},
		{
			"bufferView":32,
			"componentType":5123,
			"count":1092,
			"type":"SCALAR"
		},
		{
			"componentType":5126,
			"count":295,
			"max":[
				0.0044539570808410645,
				0,
				0
			],
			"min":[
				0,
				0,
				-0.07126331329345703
			],
			"sparse":{
				"count":36,
				"indices":{
					"bufferView":33,
					"componentType":5123
				},
				"values":{
					"bufferView":34
				}
			},
			"type":"VEC3"
		},
		{
			"bufferView":35,
			"componentType":5126,
			"count":295,
			"type":"VEC3"
		},
		{
			"bufferView":36,
			"componentType":5126,
			"count":1245,
			"max":[
				1.0588911771774292,
				1.143100380897522,
				1.129544973373413
			],
			"min":[
				-1.0588911771774292,
				0.3320489227771759,
				-1.1638224124908447
			],
			"type":"VEC3"
		},
		{
			"bufferView":37,
			"componentType":5126,
			"count":1245,
			"type":"VEC3"
		},
		{
			"bufferView":38,
			"componentType":5126,
			"count":1245,
			"type":"VEC2"
		},
		{
			"bufferView":39,
			"componentType":5123,
			"count":4488,
			"type":"SCALAR"
		}
	],
	"bufferViews":[
		{
			"buffer":0,
			"byteLength":14160,
			"byteOffset":0,
			"target":34962
		},
		{
			"buffer":0,
			"byteLength":14160,
			"byteOffset":14160,
			"target":34962
		},
		{
			"buffer":0,
			"byteLength":9440,
			"byteOffset":28320,
			"target":34962
		},
		{
			"buffer":0,
			"byteLength":11952,
			"byteOffset":37760,
			"target":34963
		},
		{
			"buffer":0,
			"byteLength":6204,
			"byteOffset":49712,
			"target":34962
		},
		{
			"buffer":0,
			"byteLength":6204,
			"byteOffset":55916,
			"target":34962
		},
		{
			"buffer":0,
			"byteLength":4136,
			"byteOffset":62120,
			"target":34962
		},
		{
			"buffer":0,
			"byteLength":5304,
			"byteOffset":66256,
			"target":34963
		},
		{
			"buffer":0,
			"byteLength":5376,
			"byteOffset":71560,
			"target":34962
		},
		{
			"buffer":0,
			"byteLength":5376,
			"byteOffset":76936,
			"target":34962
		},
		{
			"buffer":0,
			"byteLength":3584,
			"byteOffset":82312,
			"target":34962
		},
		{
			"buffer":0,
			"byteLength":3600,
			"byteOffset":85896,
			"target":34963
		},
		{
			"buffer":0,
			"byteLength":4572,
			"byteOffset":89496,
			"target":34962
		},
		{
			"buffer":0,
			"byteLength":4572,
			"byteOffset":94068,
			"target":34962
		},
		{
			"buffer":0,
			"byteLength":3048,
			"byteOffset":98640,
			"target":34962
		},
		{
			"buffer":0,
			"byteLength":3024,
			"byteOffset":101688,
			"target":34963
		},
		{
			"buffer":0,
			"byteLength":3156,
			"byteOffset":104712,
			"target":34962
		},
		{
			"buffer":0,
			"byteLength":3156,
			"byteOffset":107868,
			"target":34962
		},
		{
			"buffer":0,
			"byteLength":2104,
			"byteOffset":111024,
			"target":34962
		},
		{
			"buffer":0,
			"byteLength":2040,
			"byteOffset":113128,
			"target":34963
		},
		{
			"buffer":0,
			"byteLength":1788,
			"byteOffset":115168,
			"target":34962
		},
		{
			"buffer":0,
			"byteLength":1788,
			"byteOffset":116956,
			"target":34962
		},
		{
			"buffer":0,
			"byteLength":1192,
			"byteOffset":118744,
			"target":34962
		},
		{
			"buffer":0,
			"byteLength":822,
			"byteOffset":119936,
			"target":34963
		},
		{
			"buffer":0,
			"byteLength":1788,
			"byteOffset":120760,
			"target":34962
		},
		{
			"buffer":0,
			"byteLength":1788,
			"byteOffset":122548,
			"target":34962
		},
		{
			"buffer":0,
			"byteLength":44,
			"byteOffset":124336
		},
		{
			"buffer":0,
			"byteLength":528,
			"byteOffset":124380
		},
		{
			"buffer":0,
			"byteLength":1788,
			"byteOffset":124908,
			"target":34962
		},
		{
			"buffer":0,
			"byteLength":3540,
			"byteOffset":126696,
			"target":34962
		},
		{
			"buffer":0,
			"byteLength":3540,
			"byteOffset":130236,
			"target":34962
		},
		{
			"buffer":0,
			"byteLength":2360,
			"byteOffset":133776,
			"target":34962
		},
		{
			"buffer":0,
			"byteLength":2184,
			"byteOffset":136136,
			"target":34963
		},
		{
			"buffer":0,
			"byteLength":72,
			"byteOffset":138320
		},
		{
			"buffer":0,
			"byteLength":432,
			"byteOffset":138392
		},
		{
			"buffer":0,
			"byteLength":3540,
			"byteOffset":138824,
			"target":34962
		},
		{
			"buffer":0,
			"byteLength":14940,
			"byteOffset":142364,
			"target":34962
		},
		{
			"buffer":0,
			"byteLength":14940,
			"byteOffset":157304,
			"target":34962
		},
		{
			"buffer":0,
			"byteLength":9960,
			"byteOffset":172244,
			"target":34962
		},
		{
			"buffer":0,
			"byteLength":8976,
			"byteOffset":182204,
			"target":34963
		}
	],
	"samplers":[
		{
			"magFilter":9729,
			"minFilter":9987
		}
	],
	"buffers":[
		{
			"byteLength":191180,
			"uri":"Genbaneko.bin"
		}
	]
}
